<svg width="25" height="25" viewBox="0 0 25 25" fill="none" xmlns="http://www.w3.org/2000/svg">
<g clip-path="url(#clip0_4_651)">
<path d="M21.5169 22.6493L21.1587 20.9776C20.4206 17.5332 19.0682 14.2964 17.1386 11.3529V8.64058C18.0275 7.97178 18.6035 6.9084 18.6035 5.71289V4.24805C18.6035 3.84355 18.2756 3.51562 17.8711 3.51562H17.1386V0.732422C17.1386 0.32793 16.8107 0 16.4062 0C16.0017 0 15.6738 0.32793 15.6738 0.732422V3.52339C14.3584 3.6001 13.2059 4.29209 12.5 5.31528C11.7941 4.29209 10.6416 3.6001 9.32614 3.52339V0.732422C9.32614 0.32793 8.99821 0 8.59372 0C8.18922 0 7.86129 0.32793 7.86129 0.732422V3.51562H7.12887C6.72438 3.51562 6.39645 3.84355 6.39645 4.24805V5.71289C6.39645 6.9084 6.97243 7.97178 7.86129 8.64058V11.3529C5.9317 14.2964 4.57931 17.5332 3.84123 20.9776L3.48302 22.6493C3.40646 23.0066 3.60504 23.3658 3.9485 23.4909C6.69738 24.4923 9.57448 25 12.5 25C15.4255 25 18.3026 24.4923 21.0514 23.4909C21.3949 23.3658 21.5935 23.0067 21.5169 22.6493ZM15.9179 4.98047H17.1386V5.71289C17.1386 6.92446 16.1529 7.91016 14.9414 7.91016H13.2324V7.66602C13.2324 6.1852 14.4371 4.98047 15.9179 4.98047ZM7.86129 4.98047H9.082C10.5628 4.98047 11.7675 6.1852 11.7675 7.66602V7.91016H10.0586C8.84699 7.91016 7.86129 6.92446 7.86129 5.71289V4.98047ZM10.0586 9.375H14.9414C15.1922 9.375 15.4371 9.34956 15.6738 9.30132V10.8398H9.32614V9.30132C9.56286 9.34956 9.80778 9.375 10.0586 9.375ZM12.5 23.5352C9.95846 23.5352 7.45558 23.128 5.0507 22.3244L5.2735 21.2846C5.96115 18.0757 7.21051 15.0566 8.98898 12.3047L16.0109 12.3047C17.7894 15.0566 19.0387 18.0757 19.7264 21.2845L19.9492 22.3244C17.5444 23.128 15.0415 23.5352 12.5 23.5352Z" fill="black"/>
</g>
<defs>
<clipPath id="clip0_4_651">
<rect width="25" height="25" fill="white"/>
</clipPath>
</defs>
</svg>
